<svg width="23" height="23" viewBox="0 0 23 23" fill="none" xmlns="http://www.w3.org/2000/svg">
<path d="M18.1233 22.9999H4.84869C4.11017 22.9997 3.38144 22.831 2.71808 22.5065C2.05472 22.182 1.47426 21.7104 1.02097 21.1276C0.56768 20.5448 0.253536 19.8662 0.102501 19.1436C-0.0485342 18.421 -0.0324719 17.6734 0.149463 16.958L2.83979 5.97987C2.88824 5.7836 3.00249 5.60983 3.16351 5.48751C3.32453 5.36518 3.52261 5.30168 3.72477 5.30757H18.5481C18.7433 5.29863 18.936 5.35454 19.0961 5.46655C19.2562 5.57857 19.3747 5.7404 19.4331 5.9268L22.7783 16.6837C23.007 17.4143 23.0597 18.1886 22.932 18.9435C22.8044 19.6983 22.5 20.4123 22.0438 21.0272C21.595 21.6447 21.005 22.1459 20.323 22.489C19.641 22.8322 18.8868 23.0074 18.1233 22.9999ZM4.3885 7.0768L1.83092 17.3826C1.71703 17.8373 1.7079 18.3119 1.80423 18.7706C1.90055 19.2293 2.09982 19.6602 2.387 20.0307C2.67418 20.4013 3.04177 20.7018 3.46207 20.9097C3.88236 21.1175 4.34438 21.2273 4.81329 21.2306H18.0879C18.5696 21.2314 19.0445 21.118 19.4737 20.8996C19.9029 20.6812 20.2742 20.3642 20.557 19.9745C20.848 19.5826 21.0421 19.1275 21.1236 18.6463C21.2052 18.1651 21.1717 17.6715 21.0261 17.2056L17.9109 7.0768H4.3885Z" fill="black"/>
<path d="M15.0082 12.3846C14.7735 12.3846 14.5484 12.2914 14.3825 12.1255C14.2165 11.9596 14.1233 11.7346 14.1233 11.5V4.42308C14.1233 3.71923 13.8436 3.04422 13.3457 2.54652C12.8478 2.04883 12.1725 1.76923 11.4683 1.76923C10.7642 1.76923 10.0889 2.04883 9.59102 2.54652C9.09312 3.04422 8.81341 3.71923 8.81341 4.42308V11.5C8.81341 11.7346 8.72017 11.9596 8.55421 12.1255C8.38824 12.2914 8.16314 12.3846 7.92843 12.3846C7.69372 12.3846 7.46863 12.2914 7.30266 12.1255C7.1367 11.9596 7.04346 11.7346 7.04346 11.5V4.42308C7.04346 3.25 7.50965 2.12498 8.33947 1.29549C9.1693 0.466001 10.2948 0 11.4683 0C12.6419 0 13.7674 0.466001 14.5972 1.29549C15.427 2.12498 15.8932 3.25 15.8932 4.42308V11.5C15.8932 11.7346 15.8 11.9596 15.634 12.1255C15.4681 12.2914 15.243 12.3846 15.0082 12.3846Z" fill="black"/>
</svg>
