<svg width="23" height="23" viewBox="0 0 23 23" fill="none" xmlns="http://www.w3.org/2000/svg">
<path d="M16.5 15L15.6133 14.6667L15.24 14.3067C16.5467 12.7867 17.3333 10.8133 17.3333 8.66667C17.3333 3.88 13.4533 0 8.66667 0C3.88 0 0 3.88 0 8.66667C0 13.4533 3.88 17.3333 8.66667 17.3333C10.8133 17.3333 12.7867 16.5467 14.3067 15.24L14.6667 15.6133L15 16.5L21.5 23L23 21.5L16.5 15ZM8.66667 15.3461C5.34667 15.3461 2 11.9867 2 8.66667C2 5.34667 5.34667 2 8.66667 2C11.9867 2 15.2598 5.34667 15.2598 8.66667C15.2598 11.9867 11.9867 15.3461 8.66667 15.3461Z" fill="black"/>
</svg>
